<?xml version="1.0" encoding="UTF-8"?>
<svg xmlns="http://www.w3.org/2000/svg" width="501" height="501" viewBox="0 0 501 501" fill="none">
  <path d="M154.657 335.814H137.937V352.535H154.657V335.814Z" fill="#00C4BB"></path>
  <path d="M154.657 284.373H137.937V317.814H154.657V284.373Z" fill="#00C4BB"></path>
  <path d="M94.5898 216.685H137.933V266.375H154.653V216.685H198V198.395H94.5898V216.685Z" fill="#00C4BB"></path>
  <path d="M198.01 198.395H198V216.685H216.3V165.055H198.01V198.395Z" fill="#00C4BB"></path>
  <path d="M76.2998 76.685V216.685H94.5897V198.395V171.297V94.985H198.01V128.335H216.3V76.685H76.2998Z" fill="#00C4BB"></path>
  <path d="M165.071 138.321H148.35V155.042H165.071V138.321Z" fill="#00C4BB"></path>
  <path d="M216.512 138.321H183.071V155.042H216.512V138.321Z" fill="#00C4BB"></path>
  <path d="M284.2 94.9749V138.318H234.51V155.038H284.2V198.385H302.49V94.9749H284.2Z" fill="#00C4BB"></path>
  <path d="M302.49 198.395V198.385H284.2V216.685H335.83V198.395H302.49Z" fill="#00C4BB"></path>
  <path d="M424.2 76.685H284.2V94.9749H302.49H329.588H405.9V198.395H372.55V216.685H424.2V76.685Z" fill="#00C4BB"></path>
  <path d="M362.563 148.738H345.843V165.459H362.563V148.738Z" fill="#00C4BB"></path>
  <path d="M362.563 183.459H345.843V216.9H362.563V183.459Z" fill="#00C4BB"></path>
  <path d="M405.91 284.588H362.567V234.898H345.847V284.588H302.5V302.878H405.91V284.588Z" fill="#00C4BB"></path>
  <path d="M302.49 302.878H302.5V284.588H284.2V336.218H302.49V302.878Z" fill="#00C4BB"></path>
  <path d="M424.2 424.588V284.588H405.91V302.878V329.976V406.288H302.49V372.938H284.2V424.588H424.2Z" fill="#00C4BB"></path>
  <path d="M352.149 346.231H335.429V362.951H352.149V346.231Z" fill="#00C4BB"></path>
  <path d="M317.429 346.231H283.987V362.951H317.429V346.231Z" fill="#00C4BB"></path>
  <path d="M216.3 406.298V362.955H265.99V346.235H216.3V302.888H198.01V406.298H216.3Z" fill="#00C4BB"></path>
  <path d="M198.01 302.878V302.888H216.3V284.588H164.67V302.878H198.01Z" fill="#00C4BB"></path>
  <path d="M76.2998 424.588H216.3V406.298H198.01H170.911H94.5999V302.878H127.95V284.588H76.2998V424.588Z" fill="#00C4BB"></path>
</svg>
