<?xml version="1.0" encoding="UTF-8"?>
<svg xmlns="http://www.w3.org/2000/svg" width="501" height="501" viewBox="0 0 501 501" fill="none">
  <path d="M177.03 166.876C177.03 126.366 209.99 93.4058 250.5 93.4058C291.01 93.4058 323.97 126.366 323.97 166.876C323.97 186.916 315.9 205.106 302.85 218.376L313.66 231.246C330.34 214.886 340.69 192.086 340.69 166.876C340.69 117.066 300.31 76.6861 250.5 76.6861C200.69 76.6861 160.31 117.066 160.31 166.876C160.31 192.086 170.66 214.886 187.34 231.246L198.15 218.376C185.1 205.106 177.03 186.916 177.03 166.876Z" fill="#00C4BB"></path>
  <path d="M302.94 371.36L292.13 358.481C282.457 365.163 271.114 369.58 258.862 370.974V291.286H242.142V370.975C229.888 369.581 218.544 365.164 208.87 358.481L198.06 371.36C212.84 381.951 230.94 388.171 250.5 388.171C270.06 388.171 288.16 381.951 302.94 371.36ZM250.645 371.448C250.596 371.448 250.548 371.451 250.5 371.451C250.451 371.451 250.403 371.448 250.355 371.448H250.645Z" fill="#00C4BB"></path>
  <path d="M258.862 171.124H242.142V194.844H258.862V171.124Z" fill="#00C4BB"></path>
  <path d="M258.862 218.844H242.142V267.286H258.862V218.844Z" fill="#00C4BB"></path>
  <path d="M212.142 250.83C132.406 268.419 72.5664 339.641 72.5664 424.587H89.2861C89.2861 348.908 141.707 285.253 212.142 267.996V250.83Z" fill="#00C4BB"></path>
  <path d="M288.862 250.831V267.997C359.295 285.256 411.714 348.91 411.714 424.587H428.434C428.434 339.642 368.596 268.421 288.862 250.831Z" fill="#00C4BB"></path>
</svg>
