<?xml version="1.0" encoding="UTF-8"?>
<svg xmlns="http://www.w3.org/2000/svg" width="500" height="501" viewBox="0 0 500 501" fill="none">
  <path d="M177.443 126.578L164.563 137.388C171.246 147.061 175.663 158.404 177.057 170.656L127.369 170.656L127.369 187.376L177.058 187.376C175.664 199.63 171.247 210.974 164.563 220.648L177.443 231.458C188.034 216.678 194.253 198.578 194.253 179.018C194.253 159.458 188.034 141.358 177.443 126.578ZM177.531 178.873C177.531 178.922 177.534 178.97 177.534 179.018C177.534 179.067 177.531 179.115 177.531 179.163V178.873Z" fill="black"></path>
  <path d="M65.9272 170.656H49.2065V187.376H65.9272V170.656Z" fill="black"></path>
  <path d="M113.369 170.656H79.9272V187.376H113.369V170.656Z" fill="black"></path>
  <path d="M177.443 269.391L164.563 280.201C171.246 289.874 175.663 301.217 177.057 313.469H127.369L127.369 330.189H177.058C175.664 342.443 171.247 353.787 164.563 363.461L177.443 374.271C188.034 359.491 194.253 341.391 194.253 321.831C194.253 302.271 188.034 284.171 177.443 269.391ZM177.531 321.686C177.531 321.735 177.534 321.782 177.534 321.831C177.534 321.88 177.531 321.927 177.531 321.976V321.686Z" fill="black"></path>
  <path d="M65.9272 313.469H49.2065V330.189H65.9272V313.469Z" fill="black"></path>
  <path d="M113.369 313.469H79.9272V330.189H113.369V313.469Z" fill="black"></path>
  <path d="M305.39 76.4744V196.604H230.62V76.4744H84.9258V93.1944H213.9V196.604V196.614V213.324V213.334H230.62H322.11V213.324V196.614V196.604V93.1943H450.793V76.4744H305.39Z" fill="black"></path>
  <path d="M322.11 304.244V304.234V287.524V287.514H305.39H213.9V287.524V304.234V304.244V407.654H84.9258V424.374H230.62V304.244H305.39V424.374H450.793V407.654H322.11V304.244Z" fill="black"></path>
</svg>
