<?xml version="1.0" encoding="UTF-8"?>
<svg xmlns="http://www.w3.org/2000/svg" width="501" height="501" viewBox="0 0 501 501" fill="none">
  <path d="M177.03 166.664C177.03 126.154 209.99 93.1938 250.5 93.1938C291.01 93.1938 323.97 126.154 323.97 166.664C323.97 186.704 315.9 204.894 302.85 218.164L313.66 231.034C330.34 214.674 340.69 191.874 340.69 166.664C340.69 116.854 300.31 76.4741 250.5 76.4741C200.69 76.4741 160.31 116.854 160.31 166.664C160.31 191.874 170.66 214.674 187.34 231.034L198.15 218.164C185.1 204.894 177.03 186.704 177.03 166.664Z" fill="black"></path>
  <path d="M302.94 371.149L292.13 358.269C282.457 364.952 271.114 369.368 258.862 370.762V291.074H242.142V370.763C229.888 369.369 218.544 364.952 208.87 358.269L198.06 371.149C212.84 381.739 230.94 387.959 250.5 387.959C270.06 387.959 288.16 381.739 302.94 371.149ZM250.645 371.236C250.596 371.236 250.548 371.239 250.5 371.239C250.451 371.239 250.403 371.236 250.355 371.236H250.645Z" fill="black"></path>
  <path d="M258.862 170.912H242.142V194.632H258.862V170.912Z" fill="black"></path>
  <path d="M258.862 218.632H242.142V267.074H258.862V218.632Z" fill="black"></path>
  <path d="M212.142 250.618C132.406 268.207 72.5664 339.429 72.5664 424.375H89.2861C89.2861 348.696 141.707 285.041 212.142 267.784V250.618Z" fill="black"></path>
  <path d="M288.862 250.619V267.785C359.295 285.044 411.714 348.698 411.714 424.375H428.434C428.434 339.43 368.596 268.209 288.862 250.619Z" fill="black"></path>
</svg>
