<?xml version="1.0" encoding="UTF-8"?>
<svg xmlns="http://www.w3.org/2000/svg" width="501" height="501" viewBox="0 0 501 501" fill="none">
  <path d="M280.438 268.177L268.642 280.027L275.174 286.529L286.97 274.678L280.438 268.177Z" fill="black"></path>
  <path d="M301.08 312.311L297.404 308.653L309.199 296.802L312.875 300.46L301.08 312.311ZM290.053 301.338L282.702 294.021L294.497 282.17L301.848 289.486L290.053 301.338Z" fill="black"></path>
  <path d="M345.804 356.824L342.129 353.166L353.924 341.316L357.599 344.974L345.804 356.824ZM334.778 345.849L327.427 338.533L339.222 326.683L346.573 334L334.778 345.849ZM320.076 331.219L309.05 320.243L320.844 308.392L331.871 319.367L320.076 331.219Z" fill="black"></path>
  <path d="M366.011 353.346L354.216 365.197L360.749 371.699L372.544 359.848L366.011 353.346Z" fill="black"></path>
  <path d="M140.75 129.149L128.956 141.001L135.488 147.502L147.283 135.651L140.75 129.149Z" fill="black"></path>
  <path d="M161.725 173.615L158.002 169.91L169.796 158.058L173.519 161.763L161.725 173.615ZM150.557 162.5L143.112 155.09L154.907 143.24L162.352 150.649L150.557 162.5Z" fill="black"></path>
  <path d="M207.021 218.697L203.298 214.992L215.092 203.14L218.814 206.845L207.021 218.697ZM195.853 207.582L188.408 200.172L200.203 188.322L207.647 195.731L195.853 207.582ZM180.963 192.762L169.796 181.648L181.591 169.797L192.758 180.912L180.963 192.762Z" fill="black"></path>
  <path d="M227.334 215.325L215.54 227.176L222.072 233.677L233.867 221.826L227.334 215.325Z" fill="black"></path>
  <path d="M250.75 283.503C268.473 283.503 282.841 269.135 282.841 251.412C282.841 233.688 268.473 219.32 250.75 219.32C233.027 219.32 218.659 233.688 218.659 251.412C218.659 269.135 233.027 283.503 250.75 283.503Z" stroke="black" stroke-width="16.7197" stroke-miterlimit="10"></path>
  <path d="M386.668 283.503C404.392 283.503 418.759 269.135 418.759 251.412C418.759 233.688 404.392 219.32 386.668 219.32C368.945 219.32 354.577 233.688 354.577 251.412C354.577 269.135 368.945 283.503 386.668 283.503Z" stroke="black" stroke-width="16.7197" stroke-miterlimit="10"></path>
  <path d="M114.832 283.503C132.555 283.503 146.923 269.135 146.923 251.412C146.923 233.688 132.555 219.32 114.832 219.32C97.1084 219.32 82.7407 233.688 82.7407 251.412C82.7407 269.135 97.1084 283.503 114.832 283.503Z" stroke="black" stroke-width="16.7197" stroke-miterlimit="10"></path>
  <path d="M250.75 147.239C268.473 147.239 282.841 132.872 282.841 115.148C282.841 97.4248 268.473 83.0571 250.75 83.0571C233.027 83.0571 218.659 97.4248 218.659 115.148C218.659 132.872 233.027 147.239 250.75 147.239Z" stroke="black" stroke-width="16.7197" stroke-miterlimit="10"></path>
  <path d="M386.668 147.239C404.392 147.239 418.759 132.872 418.759 115.148C418.759 97.4248 404.392 83.0571 386.668 83.0571C368.945 83.0571 354.577 97.4248 354.577 115.148C354.577 132.872 368.945 147.239 386.668 147.239Z" stroke="black" stroke-width="16.7197" stroke-miterlimit="10"></path>
  <path d="M250.75 417.792C268.473 417.792 282.841 403.424 282.841 385.701C282.841 367.977 268.473 353.61 250.75 353.61C233.027 353.61 218.659 367.977 218.659 385.701C218.659 403.424 233.027 417.792 250.75 417.792Z" stroke="black" stroke-width="16.7197" stroke-miterlimit="10"></path>
  <path d="M386.668 417.792C404.392 417.792 418.759 403.424 418.759 385.701C418.759 367.977 404.392 353.61 386.668 353.61C368.945 353.61 354.577 367.977 354.577 385.701C354.577 403.424 368.945 417.792 386.668 417.792Z" stroke="black" stroke-width="16.7197" stroke-miterlimit="10"></path>
  <path d="M114.832 147.239C132.555 147.239 146.923 132.872 146.923 115.148C146.923 97.4248 132.555 83.0571 114.832 83.0571C97.1084 83.0571 82.7407 97.4248 82.7407 115.148C82.7407 132.872 97.1084 147.239 114.832 147.239Z" stroke="black" stroke-width="16.7197" stroke-miterlimit="10"></path>
  <path d="M114.832 417.792C132.555 417.792 146.923 403.424 146.923 385.701C146.923 367.977 132.555 353.61 114.832 353.61C97.1084 353.61 82.7407 367.977 82.7407 385.701C82.7407 403.424 97.1084 417.792 114.832 417.792Z" stroke="black" stroke-width="16.7197" stroke-miterlimit="10"></path>
</svg>
