<?xml version="1.0" encoding="UTF-8"?>
<svg xmlns="http://www.w3.org/2000/svg" width="500" height="501" viewBox="0 0 500 501" fill="none">
  <path d="M419.62 201.631H419.618V154.617H334.619V201.631V218.351V262.944C334.619 309.578 296.679 347.517 250.045 347.517C203.411 347.517 165.471 309.578 165.471 262.944V218.327L165.472 201.607L165.471 154.617H80.4712V201.607L80.4707 218.327L80.4712 262.944C80.4712 356.597 156.392 432.517 250.045 432.517C343.698 432.517 419.618 356.597 419.618 262.944V218.351H419.62V201.631ZM351.338 171.336H402.899V201.631H351.338V171.336ZM97.1909 171.336H148.751V201.607H97.1909V171.336ZM402.899 262.944C402.899 303.772 386.999 342.157 358.129 371.028C329.259 399.898 290.874 415.798 250.045 415.798C209.216 415.798 170.831 399.898 141.961 371.028C113.09 342.157 97.1909 303.772 97.1909 262.944V218.327H148.751V262.944C148.751 318.797 194.192 364.237 250.045 364.237C305.898 364.237 351.338 318.797 351.338 262.944V218.351H402.899V262.944Z" fill="black"></path>
  <path d="M97.1011 115.623H80.3815V136.236H97.1011V115.623Z" fill="black"></path>
  <path d="M80.3815 68.3314V88.9442V109.557H97.1011V88.9442V68.3314H80.3815Z" fill="black"></path>
  <path d="M114.342 71.3645V91.9773V112.59V133.203H131.062V112.59V91.9773V71.3645H114.342Z" fill="black"></path>
  <path d="M165.022 115.623H148.303V136.236H165.022V115.623Z" fill="black"></path>
  <path d="M148.303 68.3314V88.9442V109.557H165.022V88.9442V68.3314H148.303Z" fill="black"></path>
  <path d="M351.697 115.623H334.978V136.236H351.697V115.623Z" fill="black"></path>
  <path d="M334.978 68.3314V88.9442V109.557H351.697V88.9442V68.3314H334.978Z" fill="black"></path>
  <path d="M368.938 71.3645V91.9773V112.59V133.203H385.658V112.59V91.9773V71.3645H368.938Z" fill="black"></path>
  <path d="M419.618 115.623H402.899V136.236H419.618V115.623Z" fill="black"></path>
  <path d="M402.899 68.3314V88.9442V109.557H419.618V88.9442V68.3314H402.899Z" fill="black"></path>
</svg>
