<?xml version="1.0" encoding="UTF-8"?>
<svg xmlns="http://www.w3.org/2000/svg" width="119" height="25" viewBox="0 0 119 25" fill="none">
  <path d="M8.7638 24.2489C7.01111 24.2489 5.33107 23.9624 3.72469 23.3893C2.1178 22.8163 0.876406 22.0807 0 21.1815L0.977624 19.2602C1.80868 20.0691 2.92677 20.7491 4.33135 21.2995C5.73542 21.8504 7.21329 22.1253 8.7638 22.1253C10.247 22.1253 11.4546 21.9399 12.3873 21.5691C13.3195 21.1983 14.0052 20.6985 14.4435 20.0691C14.8816 19.4403 15.1007 18.7436 15.1007 17.9793C15.1007 17.0582 14.8363 16.3166 14.3086 15.7547C13.7803 15.1932 13.0893 14.7492 12.2356 14.4232C11.3813 14.0978 10.4376 13.8113 9.40424 13.5637C8.37036 13.3167 7.3366 13.0528 6.30323 12.7717C5.26935 12.4909 4.31979 12.1143 3.45495 11.6424C2.58972 11.1706 1.89288 10.5469 1.36522 9.77173C0.836906 8.99642 0.573139 7.97994 0.573139 6.72127C0.573139 5.55316 0.881733 4.47978 1.49996 3.50228C2.1178 2.52479 3.06735 1.73843 4.34825 1.14281C5.62914 0.547711 7.26916 0.249512 9.26937 0.249512C10.5951 0.249512 11.9096 0.434928 13.2131 0.80576C14.5161 1.17646 15.64 1.68788 16.5837 2.33937L15.7411 4.32801C14.73 3.65392 13.6566 3.15991 12.5221 2.84495C11.3872 2.5305 10.2917 2.37302 9.23572 2.37302C7.82008 2.37302 6.65133 2.56429 5.73022 2.94603C4.8086 3.32843 4.12918 3.83933 3.69091 4.47978C3.25277 5.12022 3.0337 5.84486 3.0337 6.65383C3.0337 7.57546 3.2976 8.31712 3.82578 8.87844C4.35344 9.4404 5.05028 9.87867 5.91564 10.1931C6.78035 10.5081 7.73004 10.7887 8.7638 11.0357C9.79716 11.2833 10.8252 11.5529 11.848 11.8447C12.8702 12.1371 13.8141 12.5136 14.6794 12.9738C15.5441 13.4347 16.241 14.0472 16.7692 14.8108C17.297 15.5751 17.5612 16.5752 17.5612 17.8108C17.5612 18.9568 17.2464 20.0186 16.6175 20.9961C15.9881 21.9737 15.0275 22.7606 13.7356 23.3557C12.4431 23.9513 10.7862 24.2489 8.7638 24.2489Z" fill="white"></path>
  <path d="M39.7648 4.17653C38.9892 2.97506 37.8822 2.05302 36.4452 1.4117C35.0069 0.771706 33.2865 0.452393 31.2881 0.452393H22.4561V2.60917H31.2202C33.5792 2.60917 35.3714 3.12676 36.5968 4.15922C37.821 5.19304 38.433 6.65395 38.433 8.54066C38.433 10.4074 37.821 11.851 36.5968 12.8729C35.3714 13.896 33.5792 14.4056 31.2202 14.4056H22.4561V24.0466H24.9508V16.597H31.2881C33.2865 16.597 35.0069 16.2723 36.4452 15.6204C37.8822 14.9684 38.9892 14.041 39.7648 12.8396C40.5405 11.6368 40.9277 10.2051 40.9277 8.54066C40.9277 6.83359 40.5405 5.37933 39.7648 4.17653Z" fill="white"></path>
  <path d="M85.2673 24.2486C83.4918 24.2486 81.8513 23.9511 80.3461 23.3554C78.8403 22.7603 77.5368 21.9228 76.4362 20.8442C75.3348 19.7655 74.4753 18.4963 73.8575 17.0353C73.2393 15.5749 72.9307 13.9795 72.9307 12.2489C72.9307 10.5189 73.2393 8.92354 73.8575 7.46256C74.4753 6.0021 75.3407 4.73225 76.4529 3.65367C77.5653 2.57509 78.8741 1.73818 80.3798 1.14256C81.8851 0.547466 83.5256 0.249268 85.301 0.249268C87.0085 0.249268 88.6153 0.535772 90.1211 1.10878C91.6262 1.68179 92.8961 2.54144 93.93 3.68745L92.3457 5.27161C91.9569 4.87395 91.5518 4.52079 91.1303 4.21213C90.5041 3.75351 89.8418 3.39317 89.1436 3.13121C87.975 2.69307 86.7167 2.474 85.3685 2.474C83.9527 2.474 82.6382 2.71568 81.4247 3.19864C80.2113 3.68213 79.1548 4.36727 78.2563 5.25472C77.3573 6.14269 76.6552 7.17605 76.1497 8.35585C75.6439 9.53553 75.3912 10.8333 75.3912 12.2489C75.3912 13.6646 75.6439 14.9624 76.1497 16.142C76.6552 17.3218 77.3573 18.3557 78.2563 19.243C79.1548 20.131 80.2113 20.8163 81.4247 21.2992C82.6382 21.7827 83.9527 22.024 85.3685 22.024C86.7167 22.024 87.975 21.7995 89.1436 21.3498C90.3117 20.9005 91.3792 20.1815 92.3457 19.1925L93.93 20.7768C92.8961 21.9228 91.6262 22.7883 90.1211 23.3723C88.6153 23.9569 86.9975 24.2486 85.2673 24.2486Z" fill="white"></path>
  <path d="M98.4463 24.0465H100.941V17.8409V14.6982V0.450989H98.4463V24.0465Z" fill="white"></path>
  <path d="M107.123 11.1471L117.324 0.450989H114.459L103.96 11.2495L104.659 12.0554L103.96 11.2495L104.886 12.3166L105.398 12.9067L105.434 12.9486L115.066 24.0465H118.032L107.123 11.1471Z" fill="white"></path>
  <path d="M57.0225 22.0247C51.6325 22.0247 47.2471 17.6392 47.2471 12.2493C47.2471 6.85931 51.6325 2.4739 57.0225 2.4739C59.6888 2.4739 62.1091 3.54764 63.8747 5.28399L65.5871 3.84568C63.4103 1.62637 60.3767 0.249268 57.0225 0.249268C50.3951 0.249268 45.0225 5.62191 45.0225 12.2493C45.0225 18.8766 50.3951 24.2493 57.0225 24.2493C60.3767 24.2493 63.4103 22.8722 65.5871 20.6529L63.8747 19.2146C62.1091 20.9509 59.6888 22.0247 57.0225 22.0247Z" fill="white"></path>
  <path d="M66.7866 5.27191L65.0729 6.71022C65.9621 7.99721 66.5497 9.5064 66.7352 11.1366H60.124V13.3613H66.7353C66.5498 14.9917 65.9622 16.501 65.0729 17.7882L66.7866 19.2264C68.1957 17.26 69.0232 14.8517 69.0232 12.2492C69.0232 9.64666 68.1957 7.23846 66.7866 5.27191ZM66.7982 12.2299C66.7983 12.2364 66.7986 12.2427 66.7986 12.2492C66.7986 12.2557 66.7983 12.262 66.7982 12.2685V12.2299Z" fill="#00C4BB"></path>
  <path d="M51.9484 11.1366H49.7236V13.3613H51.9484V11.1366Z" fill="#00C4BB"></path>
  <path d="M58.261 11.1366H53.8115V13.3613H58.261V11.1366Z" fill="#00C4BB"></path>
</svg>
