<?xml version="1.0" encoding="UTF-8"?>
<svg xmlns="http://www.w3.org/2000/svg" width="501" height="501" viewBox="0 0 501 501" fill="none">
  <path d="M280.438 268.388L268.642 280.239L275.174 286.741L286.97 274.89L280.438 268.388Z" fill="#00C4BB"></path>
  <path d="M301.08 312.523L297.404 308.865L309.199 297.013L312.875 300.672L301.08 312.523ZM290.053 301.55L282.702 294.233L294.497 282.382L301.848 289.698L290.053 301.55Z" fill="#00C4BB"></path>
  <path d="M345.804 357.036L342.129 353.378L353.924 341.528L357.599 345.186L345.804 357.036ZM334.778 346.061L327.427 338.745L339.222 326.895L346.573 334.212L334.778 346.061ZM320.076 331.43L309.05 320.455L320.844 308.604L331.871 319.579L320.076 331.43Z" fill="#00C4BB"></path>
  <path d="M366.011 353.558L354.216 365.409L360.749 371.911L372.544 360.06L366.011 353.558Z" fill="#00C4BB"></path>
  <path d="M140.75 129.361L128.956 141.213L135.488 147.714L147.283 135.863L140.75 129.361Z" fill="#00C4BB"></path>
  <path d="M161.725 173.826L158.002 170.122L169.796 158.27L173.519 161.975L161.725 173.826ZM150.557 162.712L143.112 155.302L154.907 143.451L162.352 150.861L150.557 162.712Z" fill="#00C4BB"></path>
  <path d="M207.021 218.909L203.298 215.204L215.092 203.352L218.814 207.057L207.021 218.909ZM195.853 207.794L188.408 200.384L200.203 188.534L207.647 195.943L195.853 207.794ZM180.963 192.974L169.796 181.86L181.591 170.009L192.758 181.124L180.963 192.974Z" fill="#00C4BB"></path>
  <path d="M227.334 215.537L215.54 227.388L222.072 233.889L233.867 222.038L227.334 215.537Z" fill="#00C4BB"></path>
  <path d="M250.75 283.715C268.473 283.715 282.841 269.347 282.841 251.624C282.841 233.9 268.473 219.532 250.75 219.532C233.027 219.532 218.659 233.9 218.659 251.624C218.659 269.347 233.027 283.715 250.75 283.715Z" stroke="#00C4BB" stroke-width="16.7197" stroke-miterlimit="10"></path>
  <path d="M386.668 283.715C404.392 283.715 418.759 269.347 418.759 251.624C418.759 233.9 404.392 219.532 386.668 219.532C368.945 219.532 354.577 233.9 354.577 251.624C354.577 269.347 368.945 283.715 386.668 283.715Z" stroke="#00C4BB" stroke-width="16.7197" stroke-miterlimit="10"></path>
  <path d="M114.832 283.715C132.555 283.715 146.923 269.347 146.923 251.624C146.923 233.9 132.555 219.532 114.832 219.532C97.1084 219.532 82.7407 233.9 82.7407 251.624C82.7407 269.347 97.1084 283.715 114.832 283.715Z" stroke="#00C4BB" stroke-width="16.7197" stroke-miterlimit="10"></path>
  <path d="M250.75 147.451C268.473 147.451 282.841 133.084 282.841 115.36C282.841 97.6368 268.473 83.2691 250.75 83.2691C233.027 83.2691 218.659 97.6368 218.659 115.36C218.659 133.084 233.027 147.451 250.75 147.451Z" stroke="#00C4BB" stroke-width="16.7197" stroke-miterlimit="10"></path>
  <path d="M386.668 147.451C404.392 147.451 418.759 133.084 418.759 115.36C418.759 97.6368 404.392 83.2691 386.668 83.2691C368.945 83.2691 354.577 97.6368 354.577 115.36C354.577 133.084 368.945 147.451 386.668 147.451Z" stroke="#00C4BB" stroke-width="16.7197" stroke-miterlimit="10"></path>
  <path d="M250.75 418.004C268.473 418.004 282.841 403.636 282.841 385.913C282.841 368.189 268.473 353.822 250.75 353.822C233.027 353.822 218.659 368.189 218.659 385.913C218.659 403.636 233.027 418.004 250.75 418.004Z" stroke="#00C4BB" stroke-width="16.7197" stroke-miterlimit="10"></path>
  <path d="M386.668 418.004C404.392 418.004 418.759 403.636 418.759 385.913C418.759 368.189 404.392 353.822 386.668 353.822C368.945 353.822 354.577 368.189 354.577 385.913C354.577 403.636 368.945 418.004 386.668 418.004Z" stroke="#00C4BB" stroke-width="16.7197" stroke-miterlimit="10"></path>
  <path d="M114.832 147.451C132.555 147.451 146.923 133.084 146.923 115.36C146.923 97.6368 132.555 83.2691 114.832 83.2691C97.1084 83.2691 82.7407 97.6368 82.7407 115.36C82.7407 133.084 97.1084 147.451 114.832 147.451Z" stroke="#00C4BB" stroke-width="16.7197" stroke-miterlimit="10"></path>
  <path d="M114.832 418.004C132.555 418.004 146.923 403.636 146.923 385.913C146.923 368.189 132.555 353.822 114.832 353.822C97.1084 353.822 82.7407 368.189 82.7407 385.913C82.7407 403.636 97.1084 418.004 114.832 418.004Z" stroke="#00C4BB" stroke-width="16.7197" stroke-miterlimit="10"></path>
</svg>
