<?xml version="1.0" encoding="UTF-8"?>
<svg xmlns="http://www.w3.org/2000/svg" width="31" height="31" viewBox="0 0 31 31" fill="none">
  <rect width="30.583" height="30.583" rx="15.2915" fill="#00E6DA"></rect>
  <path d="M24.291 9.84901V9.07275H6.29102V21.5104H24.291V20.7342H7.06726V9.84901H24.291Z" fill="#060606"></path>
  <path d="M16.984 16.5794C16.2742 16.5794 15.6962 16.0014 15.6962 15.2915C15.6962 14.5817 16.2742 14.0037 16.984 14.0037C17.2385 14.0037 17.4757 14.0779 17.6758 14.2061L18.2324 13.6494C17.8856 13.3848 17.4529 13.2274 16.984 13.2274C15.8461 13.2274 14.9199 14.1536 14.9199 15.2915C14.9199 16.4294 15.8461 17.3557 16.984 17.3557C17.4529 17.3557 17.8856 17.1983 18.2324 16.9336L17.6758 16.377C17.4757 16.5051 17.2385 16.5794 16.984 16.5794Z" fill="#060606"></path>
  <path d="M24.2909 9.849H23.5146V20.7341H24.2909V9.849Z" fill="#060606"></path>
  <path d="M18.6265 14.0426L18.0693 14.5997C18.1975 14.7994 18.2718 15.0371 18.2718 15.2915C18.2718 15.5459 18.1975 15.7836 18.0693 15.9832L18.6265 16.5403C18.8162 16.2917 18.9502 15.9984 19.011 15.6796H19.68V14.9033H19.011C18.9502 14.5845 18.8162 14.2913 18.6265 14.0426Z" fill="#060606"></path>
  <path d="M20.2139 14.9036V15.6798H20.433H21.2093V14.9036H20.433H20.2139Z" fill="#060606"></path>
  <path d="M22.7386 14.9036H22.5194H21.7432V15.6798H22.5194H22.7386H23.5148V14.9036H22.7386Z" fill="#060606"></path>
</svg>
