<?xml version="1.0" encoding="UTF-8"?>
<svg xmlns="http://www.w3.org/2000/svg" width="31" height="31" viewBox="0 0 31 31" fill="none">
  <rect width="30.583" height="30.583" rx="15.2915" fill="#00E6DA"></rect>
  <path d="M24.2911 13.475C24.2911 13.6792 24.2817 13.8813 24.2629 14.0805H17.2734V12.8694H23.0453C22.9447 11.9822 22.6245 11.1601 22.1407 10.4597L23.0736 9.67676C23.8406 10.7473 24.2911 12.0582 24.2911 13.475Z" fill="#060606"></path>
  <path d="M10.2884 12.8691H8.57031V14.0802H10.2884V12.8691Z" fill="#060606"></path>
  <path d="M15.535 12.8691H12.0264V14.0802H15.535V12.8691Z" fill="#060606"></path>
  <path d="M13.308 16.5024H6.31926C6.30043 16.7016 6.29102 16.9037 6.29102 17.108C6.29102 18.5247 6.74152 19.8356 7.50855 20.9062L8.44145 20.1232C7.95689 19.4221 7.63748 18.6007 7.53608 17.7135H13.308V16.5024Z" fill="#060606"></path>
  <path d="M22.011 16.5022H20.293V17.7133H22.011V16.5022Z" fill="#060606"></path>
  <path d="M18.5545 16.5022H15.0459V17.7133H18.5545V16.5022Z" fill="#060606"></path>
</svg>
