<?xml version="1.0" encoding="UTF-8"?>
<svg xmlns="http://www.w3.org/2000/svg" width="31" height="32" viewBox="0 0 31 32" fill="none">
  <rect y="0.583008" width="30.583" height="30.583" rx="15.2915" fill="#00E6DA"></rect>
  <path d="M16.6986 23.5598H15.7607V24.8746H16.6986V23.5598Z" fill="#060606"></path>
  <path d="M9.31571 13.7884C9.31571 12.3094 9.85584 10.9543 10.7499 9.90939L10.0824 9.24194C9.02125 10.4574 8.37793 12.048 8.37793 13.7884C8.37793 17.4492 11.2232 20.4454 14.8229 20.6866V19.746C11.746 19.506 9.31571 16.9254 9.31571 13.7884Z" fill="#060606"></path>
  <path d="M15.292 6.87451C13.5516 6.87451 11.9615 7.51728 10.7461 8.57901L11.413 9.24589C12.4579 8.35242 13.813 7.8123 15.292 7.8123C18.5871 7.8123 21.2681 10.4933 21.2681 13.7884C21.2681 16.9254 18.8378 19.506 15.7609 19.746V20.6866C15.7609 20.6866 15.7609 20.6866 15.7609 20.6866L15.7609 22.5502H16.6987V20.5586C19.8425 19.9087 22.2059 17.1248 22.2059 13.7884C22.2059 9.96998 19.1104 6.87451 15.292 6.87451Z" fill="#060606"></path>
</svg>
