<?xml version="1.0" encoding="UTF-8"?>
<svg xmlns="http://www.w3.org/2000/svg" width="148" height="34" viewBox="0 0 148 34" fill="none">
  <path fill-rule="evenodd" clip-rule="evenodd" d="M105.585 13.7216H100.139V15.9064H105.585C105.865 15.8942 106.13 15.7738 106.324 15.5703C106.519 15.3667 106.627 15.0958 106.627 14.814C106.627 14.5322 106.519 14.2612 106.324 14.0576C106.13 13.8542 105.865 13.7337 105.585 13.7216ZM58.0363 9.34985V13.7216L49.8694 20.2781H58.0363V24.6498H43.5176V20.2781L51.6885 13.7216H43.5176V9.34985H58.0363ZM138.976 9.34985L142.968 24.6498H138.614L135.709 13.7216L132.805 24.6498H128.451L132.443 9.34985H138.976ZM88.8867 9.34985L92.8805 24.6498H88.525L85.6204 13.7216L82.7179 24.6498H78.362L82.3541 9.34985H88.8867ZM126.998 9.34985V13.7216H121.916V24.6498H117.56V13.7216H112.479V9.34985H126.998ZM75.4575 9.34985V24.6498H71.1017V9.34985H75.4575ZM65.2947 9.34985V15.9064H71.1017L65.2947 20.2781V24.6498H60.9388V9.34985H65.2947ZM105.585 9.34985C106.822 9.34756 108.023 9.76834 108.991 10.5429C109.958 11.3174 110.634 12.3995 110.906 13.6109C111.178 14.8222 111.032 16.0907 110.49 17.2073C109.948 18.324 109.044 19.2221 107.926 19.7538L111.028 24.6498H106.135L103.371 20.2781H100.139V24.6498H95.7832V9.34985H105.585Z" fill="white"></path>
  <path fill-rule="evenodd" clip-rule="evenodd" d="M22.7533 1.70009L27.1247 6.07181V21.7472L31.4961 17.3754V10.4394L35.8676 14.8112V19.1808L22.7533 32.296V1.70009ZM18.3819 1.70009V32.3001L14.0104 27.9284V12.253L9.63901 16.6247V23.5607L5.26758 19.1849V14.8152L18.3819 1.70009Z" fill="#F42664"></path>
</svg>
