<?xml version="1.0" encoding="UTF-8"?>
<svg xmlns="http://www.w3.org/2000/svg" width="113" height="34" viewBox="0 0 113 34" fill="none">
  <path d="M58.932 13.5529V25.9792C58.8296 26.0202 58.6454 26.0611 58.4406 26.1021C58.2359 26.143 58.0107 26.1839 57.7651 26.1839C57.2738 26.1839 56.9257 26.1021 56.721 25.9178C56.5163 25.7336 56.414 25.406 56.414 24.9761V13.5529H52.1968C52.1149 13.4506 52.0535 13.2868 51.9921 13.123C51.9511 12.9388 51.9307 12.7545 51.9307 12.5294C51.9307 12.1813 52.0126 11.9152 52.1763 11.731C52.3606 11.5467 52.5858 11.4444 52.8724 11.4444H63.231C63.2924 11.5467 63.3538 11.6695 63.3948 11.8538C63.4562 12.038 63.4971 12.2223 63.4971 12.427C63.4971 13.1844 63.1901 13.5529 62.5759 13.5529H58.932Z" fill="#686DF1"></path>
  <path d="M67.6108 26.0611C67.2014 26.0611 66.8738 25.9383 66.6077 25.6722C66.3621 25.4061 66.2188 25.0785 66.2188 24.6691V12.7955C66.2188 12.3861 66.3416 12.0585 66.6077 11.8129C66.8534 11.5467 67.2014 11.4239 67.6108 11.4239H75.4924C75.5743 11.5263 75.6357 11.6491 75.6767 11.8334C75.7381 12.0176 75.779 12.2018 75.779 12.4066C75.779 12.7546 75.6971 13.0412 75.5129 13.2254C75.3491 13.4097 75.1239 13.512 74.8373 13.512H68.7368V17.504H74.7554C74.8373 17.6064 74.8987 17.7292 74.9397 17.9134C75.0011 18.0977 75.042 18.2819 75.042 18.4866C75.042 18.8551 74.9602 19.1213 74.7759 19.3055C74.6121 19.4897 74.3869 19.5716 74.1003 19.5716H68.7163V23.9526H75.5743C75.6357 24.0549 75.6971 24.1778 75.7585 24.362C75.82 24.5462 75.8609 24.7305 75.8609 24.9352C75.8609 25.3037 75.779 25.5903 75.5948 25.7745C75.431 25.9588 75.2058 26.0407 74.9192 26.0407H67.6108V26.0611Z" fill="#686DF1"></path>
  <path d="M84.845 13.5529V25.9792C84.7427 26.0202 84.5584 26.0611 84.3537 26.1021C84.149 26.143 83.9238 26.1839 83.6782 26.1839C83.1869 26.1839 82.8388 26.1021 82.6341 25.9178C82.4294 25.7336 82.327 25.406 82.327 24.9761V13.5529H78.1099C78.028 13.4506 77.9666 13.2868 77.9052 13.123C77.8642 12.9388 77.8438 12.7545 77.8438 12.5294C77.8438 12.1813 77.9256 11.9152 78.0894 11.731C78.2737 11.5467 78.4988 11.4444 78.7854 11.4444H89.1441C89.2055 11.5467 89.2669 11.6695 89.3079 11.8538C89.3693 12.038 89.4102 12.2223 89.4102 12.427C89.4102 13.1844 89.1032 13.5529 88.489 13.5529H84.845Z" fill="#686DF1"></path>
  <path d="M103.806 20.9024C103.806 21.7213 103.663 22.4583 103.397 23.1338C103.151 23.8094 102.762 24.3826 102.251 24.8739C101.759 25.3448 101.145 25.7337 100.408 25.9794C99.6916 26.2455 98.8728 26.3683 97.9311 26.3683C97.0098 26.3683 96.191 26.2455 95.454 25.9794C94.7375 25.7132 94.1233 25.3448 93.6115 24.8739C93.1202 24.3826 92.7313 23.8094 92.4651 23.1338C92.2195 22.4583 92.0762 21.7213 92.0762 20.9024V11.424C92.1785 11.3831 92.3628 11.3626 92.5675 11.3217C92.7927 11.2807 93.0179 11.2398 93.2635 11.2398C93.7139 11.2398 94.0619 11.3217 94.2871 11.5059C94.5123 11.6902 94.6147 11.9972 94.6147 12.4476V20.7386C94.6147 21.885 94.9217 22.7449 95.5359 23.3385C96.1705 23.9322 96.9484 24.2188 97.8901 24.2188C98.361 24.2188 98.8113 24.1369 99.2003 23.9936C99.5893 23.8299 99.9373 23.6047 100.244 23.3181C100.551 23.0315 100.777 22.663 100.94 22.2331C101.125 21.8032 101.207 21.2914 101.207 20.7182V11.424C101.309 11.3831 101.493 11.3626 101.698 11.3217C101.923 11.2807 102.148 11.2398 102.394 11.2398C102.844 11.2398 103.192 11.3217 103.417 11.5059C103.643 11.6902 103.745 11.9972 103.745 12.4476V20.9024H103.806Z" fill="#686DF1"></path>
  <path d="M25.1927 12.3454C28.1324 12.3454 30.5154 9.96234 30.5154 7.02273C30.5154 4.08313 28.1324 1.7001 25.1927 1.7001C22.2531 1.7001 19.8701 4.08313 19.8701 7.02273C19.8701 9.96234 22.2531 12.3454 25.1927 12.3454Z" fill="#04A8F0"></path>
  <path d="M25.1954 15.4159C19.7704 15.4159 15.369 11.0145 15.369 5.5895C15.5942 2.92818 13.3219 2.92818 12.7077 3.64469C12.6668 3.68563 12.6258 3.72658 12.5644 3.78799C10.4763 6.51072 9.22754 9.88854 9.22754 13.5939C9.22754 16.8284 12.2983 18.9165 15.5533 18.9165H34.858C38.0926 18.9165 41.1838 16.8489 41.1838 13.5939C41.1838 9.90902 39.935 6.51072 37.8469 3.80846C37.806 3.74705 37.765 3.70611 37.7036 3.66516C37.069 2.92818 34.7966 2.92818 35.0218 5.5895C35.0218 11.0145 30.6204 15.4159 25.1954 15.4159Z" fill="#686DF1"></path>
  <path d="M26.8749 31.4248L31.3582 24.9762C32.2999 23.6251 31.3377 21.7621 29.6795 21.7621H25.1962H20.7129C19.0547 21.7621 18.0925 23.6251 19.0342 24.9762L23.5175 31.4248C24.3364 32.5917 26.056 32.5917 26.8749 31.4248Z" fill="#04A8F0"></path>
</svg>
