<?xml version="1.0" encoding="UTF-8"?>
<svg xmlns="http://www.w3.org/2000/svg" width="182" height="34" viewBox="0 0 182 34" fill="none">
  <path d="M65.9916 4.74187C65.9916 4.74187 63.6242 5.31687 61.7625 7.51359C59.9008 9.71031 45.5578 30.1346 45.5578 30.1346C45.5578 30.1346 48.113 23.9269 47.7799 21.2742C47.4011 18.2346 35.0422 17.2877 1.10156 30.3L33.0845 12.3919C33.0845 12.3919 49.4037 2.8182 58.9616 3.76603C68.5191 4.71386 65.9916 4.74187 65.9916 4.74187Z" fill="url(#paint0_linear_1259_7915)"></path>
  <path d="M76.7535 22.9394C77.2395 22.9465 77.7208 22.8457 78.1628 22.6445C78.5896 22.4438 78.9685 22.1567 79.2765 21.8017C79.614 21.4072 79.8826 20.959 80.0698 20.4758C80.2917 19.9141 80.4368 19.3254 80.5005 18.7254L81.8421 7.83805H85.9687L84.6264 18.7254C84.4971 19.7909 84.1957 20.8287 83.734 21.799C83.3026 22.7054 82.705 23.524 81.9722 24.2129C81.2426 24.8914 80.3902 25.426 79.4597 25.7882C78.4596 26.1738 77.3945 26.3657 76.3214 26.3536C75.2918 26.3536 74.3744 26.1987 73.568 25.8888C72.8036 25.6088 72.1115 25.1635 71.5408 24.5851C70.9708 24.0068 70.5374 23.3099 70.2715 22.5447C69.9766 21.7086 69.8308 20.8278 69.8414 19.9419C69.842 19.5344 69.8676 19.1273 69.9169 18.7228L71.2335 7.83543H75.3594L74.0178 18.7228C74.0007 18.8733 73.9883 19.0221 73.9797 19.1691C73.9712 19.3161 73.9673 19.4606 73.9673 19.6067C73.9673 20.6453 74.2056 21.4601 74.6817 22.0511C75.1585 22.6422 75.8486 22.9382 76.7535 22.9394Z" fill="white"></path>
  <path d="M91.656 7.86003C91.7696 7.86998 91.8806 7.8996 91.9844 7.94752C92.0848 7.99434 92.1741 8.0604 92.249 8.14183C92.3363 8.24257 92.4125 8.3523 92.4762 8.46919L98.9412 19.7845C98.9589 19.4913 98.9839 19.2103 99.018 18.9417C99.0522 18.673 99.0817 18.4227 99.106 18.1873L100.346 7.84078H103.992L101.714 26.1576H99.5578C99.2853 26.1666 99.0134 26.1195 98.76 26.0194C98.5242 25.9032 98.3331 25.7135 98.2162 25.4794L91.7736 14.1772C91.7572 14.4117 91.7375 14.6383 91.7178 14.8563C91.6974 15.0742 91.677 15.279 91.66 15.4689L90.3952 26.1576H86.752L89.0293 7.84078H91.2062C91.3835 7.84078 91.5332 7.84778 91.656 7.86003Z" fill="white"></path>
  <path d="M109.536 26.1576H105.385L107.638 7.84078H111.788L109.536 26.1576Z" fill="white"></path>
  <path d="M118.038 19.9849L117.279 26.1576H113.178L115.431 7.84078H121.531C122.628 7.84078 123.568 7.97293 124.35 8.23725C125.134 8.50156 125.775 8.86621 126.274 9.33121C126.769 9.78543 127.149 10.35 127.382 10.9783C127.621 11.6329 127.74 12.3247 127.734 13.021C127.743 13.9646 127.587 14.9025 127.271 15.7927C126.975 16.6245 126.493 17.3787 125.861 17.9991C125.228 18.6199 124.426 19.1059 123.457 19.4572C122.487 19.8084 121.339 19.9834 120.014 19.9822L118.038 19.9849ZM119.177 10.8961L118.43 16.9051H120.418C121.005 16.9051 121.5 16.8194 121.905 16.6478C122.286 16.4901 122.621 16.2393 122.878 15.9188C123.137 15.5861 123.32 15.2023 123.417 14.7933C123.53 14.3242 123.585 13.843 123.581 13.3606C123.585 13.024 123.536 12.689 123.436 12.3672C123.348 12.0738 123.191 11.8048 122.981 11.5811C122.77 11.3575 122.51 11.1853 122.221 11.0781C121.871 10.9498 121.499 10.888 121.126 10.8961H119.177Z" fill="white"></path>
  <path d="M133.276 26.1576H129.125L131.377 7.84078H135.529L133.276 26.1576Z" fill="white"></path>
  <path d="M141.45 22.8896H147.652L147.247 26.1576H136.92L139.198 7.84078H143.325L141.45 22.8896Z" fill="white"></path>
  <path d="M166.431 15.8243C166.434 16.7822 166.315 17.7366 166.079 18.6652C165.857 19.5449 165.525 20.3937 165.092 21.1919C164.672 21.9635 164.153 22.6778 163.547 23.3168C162.95 23.9495 162.269 24.4972 161.521 24.9446C159.945 25.8808 158.142 26.3699 156.307 26.359C155.092 26.359 154.001 26.1475 153.035 25.7244C152.099 25.3248 151.259 24.7338 150.568 23.9898C149.882 23.2381 149.356 22.3576 149.018 21.4002C148.653 20.3682 148.471 19.2812 148.48 18.1874C148.478 17.2274 148.596 16.271 148.832 15.3403C149.053 14.4582 149.385 13.6072 149.819 12.8075C150.24 12.0349 150.761 11.3205 151.369 10.6826C151.971 10.0503 152.656 9.5026 153.407 9.05475C154.171 8.60046 154.992 8.24933 155.849 8.01063C156.756 7.7597 157.692 7.63482 158.633 7.63956C159.84 7.63956 160.927 7.85135 161.894 8.27494C162.827 8.67545 163.664 9.26922 164.348 10.0166C165.031 10.7737 165.556 11.6581 165.892 12.6185C166.256 13.6482 166.439 14.7328 166.431 15.8243ZM162.202 15.925C162.21 15.2304 162.118 14.5382 161.931 13.8692C161.77 13.2949 161.498 12.757 161.132 12.2851C160.791 11.8523 160.353 11.5041 159.853 11.2681C159.313 11.022 158.725 10.8993 158.131 10.9093C157.344 10.8971 156.566 11.0774 155.866 11.4344C155.194 11.7874 154.611 12.2886 154.164 12.8995C153.668 13.584 153.304 14.3533 153.088 15.1688C152.83 16.1258 152.704 17.1134 152.715 18.1042C152.706 18.796 152.795 19.4857 152.979 20.153C153.134 20.7229 153.399 21.2577 153.758 21.7284C154.096 22.1581 154.532 22.5023 155.03 22.7331C155.574 22.9798 156.167 23.1021 156.764 23.091C157.54 23.108 158.307 22.9371 159.001 22.5933C159.695 22.2494 160.293 21.7429 160.745 21.1175C161.24 20.4339 161.606 19.6676 161.827 18.8551C162.09 17.9006 162.218 16.9144 162.206 15.925H162.202Z" fill="white"></path>
  <path d="M181.546 7.84078L181.114 11.0842H176.432L174.559 26.1576H170.458L172.308 11.0842H167.601L168.005 7.84078H181.546Z" fill="white"></path>
  <defs>
    <linearGradient id="paint0_linear_1259_7915" x1="14.3793" y1="3.69514" x2="45.0301" y2="25.8842" gradientUnits="userSpaceOnUse">
      <stop offset="0.01" stop-color="#FCBB38"></stop>
      <stop offset="1" stop-color="#EFA618"></stop>
    </linearGradient>
  </defs>
</svg>
