<svg xmlns="http://www.w3.org/2000/svg" width="119.281" height="20.597" viewBox="0 0 119.281 20.597">
  <g id="Group_287" data-name="Group 287" transform="translate(-1002 -6861.982)">
    <g id="Group_21" data-name="Group 21" transform="translate(3155.805 5434.141)">
      <path id="Path_13" data-name="Path 13" d="M-2142.977,1427.841l2.556,7.867h8.272l-6.692,4.862,2.556,7.867-6.692-4.862-6.692,4.862,2.556-7.867-6.692-4.862h8.272Z" fill="#ca13ed"/>
      <path id="Path_14" data-name="Path 14" d="M-2102.758,1427.841l2.556,7.867h8.272l-6.692,4.862,2.556,7.867-6.692-4.862-6.692,4.862,2.556-7.867-6.692-4.862h8.272Z" transform="translate(-15.813)" fill="#ca13ed"/>
      <path id="Path_15" data-name="Path 15" d="M-2062.54,1427.841l2.556,7.867h8.272l-6.692,4.862,2.556,7.867-6.692-4.862-6.692,4.862,2.556-7.867-6.692-4.862h8.272Z" transform="translate(-31.625)" fill="#ca13ed"/>
      <path id="Path_16" data-name="Path 16" d="M-2022.321,1427.841l2.556,7.867h8.272l-6.692,4.862,2.556,7.867-6.692-4.862-6.692,4.862,2.556-7.867-6.692-4.862h8.272Z" transform="translate(-47.438)" fill="#ca13ed"/>
      <path id="Path_17" data-name="Path 17" d="M-1982.1,1427.841l2.556,7.867h8.272l-6.692,4.862,2.556,7.867-6.692-4.862-6.692,4.862,2.556-7.867-6.693-4.862h8.272Z" transform="translate(-63.25)" fill="#ca13ed"/>
    </g>
  </g>
</svg>
